<?xml version="1.0" encoding="iso-8859-1"?>
<!-- Generator: Adobe Illustrator 16.0.0, SVG Export Plug-In . SVG Version: 6.00 Build 0)  -->
<!DOCTYPE svg PUBLIC "-//W3C//DTD SVG 1.1//EN" "http://www.w3.org/Graphics/SVG/1.1/DTD/svg11.dtd">
<svg version="1.1" id="Layer_1" xmlns="http://www.w3.org/2000/svg" xmlns:xlink="http://www.w3.org/1999/xlink" x="0px" y="0px"
	 width="512px" height="512px" viewBox="0 0 512 512" style="enable-background:new 0 0 512 512;" xml:space="preserve">
<g>
	<path d="M228.938,305.09c8.029,4.444,17.254,6.983,27.063,6.983s19.033-2.539,27.063-6.983L256,278.027L228.938,305.09z"/>
	<path d="M240.424,202.145c-23.361,6.768-40.497,28.341-40.497,53.855c0,9.809,2.539,19.033,6.983,27.063l33.514-33.514V202.145z"/>
	<path d="M312.073,256c0-25.514-17.136-47.087-40.497-53.855v47.404l33.514,33.514C309.534,275.033,312.073,265.809,312.073,256z"/>
	<path d="M88.22,16.667v478.085l335.561,0.581V16.667H88.22z M392.223,357.847H381.44v-203.72h10.782V357.847z M392.223,105.037
		H381.44V58.753H130.56v394.468H381.44v-46.284h10.782v56.785l-272.445-0.472V48.225h272.445V105.037z M343.225,256
		c0,48.096-39.129,87.225-87.225,87.225S168.775,304.096,168.775,256s39.129-87.225,87.225-87.225S343.225,207.904,343.225,256z"/>
</g>
</svg>
